<?xml version="1.0" encoding="UTF-8"?>
<!DOCTYPE svg PUBLIC "-//W3C//DTD SVG 1.1//EN" "http://www.w3.org/Graphics/SVG/1.1/DTD/svg11.dtd">
<!-- Creator: CorelDRAW 2018 (64-Bit) -->
<svg xmlns="http://www.w3.org/2000/svg" xml:space="preserve" width="4.54698in" height="4.54698in" version="1.1" style="shape-rendering:geometricPrecision; text-rendering:geometricPrecision; image-rendering:optimizeQuality; fill-rule:evenodd; clip-rule:evenodd"
viewBox="0 0 3068.98 3068.98"
 xmlns:xlink="http://www.w3.org/1999/xlink">
 <defs>
  <style type="text/css">
   <![CDATA[
    .str0 {stroke:black;stroke-width:4.69;stroke-miterlimit:2.61313}
    .fil2 {fill:black}
    .fil1 {fill:#3266CC}
    .fil0 {fill:#E6E6E6}
   ]]>
  </style>
 </defs>
 <g id="Layer_x0020_1">
  <metadata id="CorelCorpID_0Corel-Layer"/>
  <path class="fil0" d="M1534.49 0c847.48,0 1534.49,687.01 1534.49,1534.49 0,847.48 -687.01,1534.49 -1534.49,1534.49 -847.48,0 -1534.49,-687.01 -1534.49,-1534.49 0,-847.48 687.01,-1534.49 1534.49,-1534.49z"/>
  <g id="_1490605141888">
   <polygon class="fil1" points="1185.34,1185.34 1883.64,1185.34 1883.64,1883.64 1185.34,1883.64 "/>
   <g>
    <polygon class="fil2 str0" points="1187.12,344.52 2562.35,1042.83 1187.12,1042.83 "/>
    <polygon class="fil2 str0" points="2724.45,1187.12 2026.15,2562.35 2026.15,1187.12 "/>
    <polygon class="fil2 str0" points="1881.86,2724.45 506.63,2026.15 1881.86,2026.15 "/>
    <polygon class="fil2 str0" points="344.53,1881.86 1042.83,506.63 1042.83,1881.86 "/>
   </g>
  </g>
 </g>
</svg>
